<?xml version="1.0" encoding="utf-8"?>
<!-- Generator: Adobe Illustrator 28.2.0, SVG Export Plug-In . SVG Version: 6.00 Build 0)  -->
<svg version="1.1" id="_Слой_2" xmlns="http://www.w3.org/2000/svg" xmlns:xlink="http://www.w3.org/1999/xlink" x="0px"
	 y="0px" viewBox="0 0 604 604" style="enable-background:new 0 0 604 604;" xml:space="preserve">
<style type="text/css">
	.st0{fill:#FFFFFF;}
</style>
<g id="_Слой_1-2">
	<path class="st0" d="M302,0C135.2,0,0,135.2,0,302s135.2,302,302,302s302-135.2,302-302S468.8,0,302,0z M302,566.5
		C155.9,566.5,37.5,448.1,37.5,302S155.9,37.5,302,37.5S566.5,155.9,566.5,302S448.1,566.5,302,566.5z"/>
	<path class="st0" d="M297.4,144c-91.8,0-166.3,74.4-166.3,166.3s74.4,166.3,166.3,166.3s166.3-74.4,166.3-166.3
		S389.2,144,297.4,144L297.4,144z M297.4,395.9c-47.3,0-85.6-38.3-85.6-85.6s38.3-85.6,85.6-85.6s85.6,38.3,85.6,85.6
		S344.7,395.9,297.4,395.9z"/>
	<polygon class="st0" points="284,259.9 334.4,310.2 284.3,360.3 	"/>
	<rect x="275.3" y="23.8" class="st0" width="54" height="171"/>
	<rect x="275.3" y="425.8" class="st0" width="54" height="171"/>
	<rect x="430.3" y="283.8" class="st0" width="171" height="54"/>
	<rect x="6.3" y="283.8" class="st0" width="171" height="54"/>
	
		<rect x="144.8" y="89.2" transform="matrix(0.7071 -0.7071 0.7071 0.7071 -73.2456 172.6672)" class="st0" width="54" height="171"/>
	
		<rect x="344.3" y="147.8" transform="matrix(0.7071 -0.7071 0.7071 0.7071 2.3191 355.1018)" class="st0" width="171" height="54"/>
</g>
</svg>
