<?xml version="1.0" encoding="utf-8"?>
<!-- Generator: Adobe Illustrator 28.2.0, SVG Export Plug-In . SVG Version: 6.00 Build 0)  -->
<svg version="1.1" id="_Слой_2" xmlns="http://www.w3.org/2000/svg" xmlns:xlink="http://www.w3.org/1999/xlink" x="0px"
	 y="0px" viewBox="0 0 200 200" style="enable-background:new 0 0 200 200;" xml:space="preserve">
<style type="text/css">
	.st0{fill:#FFFFFF;}
</style>
<path d="M100,0L100,0c55.2,0,100,44.8,100,100l0,0c0,55.2-44.8,100-100,100l0,0C44.8,200,0,155.2,0,100l0,0C0,44.8,44.8,0,100,0z"/>
<path class="st0" d="M160.1,39.7c-2.8-3.4-15.1,2.8-25.1,7.4c-18,8.2-31.3,12.9-52.1,19.6c-18.3,6-35.9,14-54,20.6
	c-2.1,0.8-8.8,3.2-8.8,6.4c0,3.4,8.5,6.3,17.2,9.3c11,3.8,13.5,3,16.7,6.4c1.7,1.8,3,6.3,5.4,15.2c2.1,7.6,2.9,11.8,5.4,18.2
	c3.5,9.1,5.2,9.7,5.9,9.8c2.5,0.6,4.3-1.7,14.2-9.8c7.3-6,8.1-6.2,8.8-6.4c4.1-0.8,8.3,1.4,20.6,12.3c13.5,11.9,16.4,16.3,19.5,15.3
	c2.8-0.9,3-5.2,6-20c1.3-6.6,3-13.1,4.3-19.7c6-30.6,9-45.9,9.4-47.8c1.9-8.1,2.8-16.5,4.9-24.6C160.6,44.7,161.7,41.6,160.1,39.7
	L160.1,39.7z M95.3,99.6c-4,3.3-7.8,7-11.8,10.3c-6.2,5.1-8.1,6.2-9.3,9.3c-0.8,1.9-1.4,5-2.5,11.3c-1.1,6.4-1.2,8.8-2,8.8
	c-1.3,0.1-3-5.6-3.9-8.8c-2-6.8-1.2-7.1-3-13.3c-1-3.6-1.9-4.6-1.5-6.9c0.6-3.3,3.2-5.4,4.4-6.4C76.9,95.3,87,90.3,87,90.3
	c3.9-2,10.1-5.6,22.6-12.8c14.7-8.5,18.6-11.5,19.2-10.8C130,68.3,107.8,89.3,95.3,99.6L95.3,99.6z"/>
</svg>
