<?xml version="1.0" encoding="utf-8"?>
<!-- Generator: Adobe Illustrator 28.2.0, SVG Export Plug-In . SVG Version: 6.00 Build 0)  -->
<svg version="1.1" id="_Слой_2" xmlns="http://www.w3.org/2000/svg" xmlns:xlink="http://www.w3.org/1999/xlink" x="0px"
	 y="0px" viewBox="0 0 180 180" style="enable-background:new 0 0 180 180;" xml:space="preserve">
<style type="text/css">
	.st0{fill:#FFFFFF;}
</style>
<path d="M14.6,0h150.7c8.1,0,14.6,6.6,14.6,14.6v150.7c0,8.1-6.6,14.6-14.6,14.6H14.6C6.6,180,0,173.4,0,165.4V14.6
	C0,6.6,6.6,0,14.6,0z"/>
<path class="st0" d="M111,115c-1.9,0.2-3.1,1.9-4,3c-3.6,4.7-1.1,9.3-3,13c-3.2,6.2-16.5,5.2-19,5c-2.9-0.2-16.2-1.5-33-16
	c-8.5-7.4-15.5-18.7-29-41C11.6,60.2,8.1,52.4,11,49c1.2-1.4,5.5-1.6,14-2c8.9-0.4,13.4-0.6,15,0c5.8,2.2,6.6,7.2,16,24
	c8.5,15.2,10.7,16.3,12,16c2.3-0.5,3-5.3,4-12c1.2-7.9,2.4-16.4-2-20c-2.3-1.9-5.1-1.6-6-4c-0.6-1.7,0.1-3.7,1-5
	c2.3-3.1,7.2-2.6,18-2c16.3,0.9,17.3,0.3,19,2c2.8,2.8,2.6,9.5,2,23c-0.5,10.8-1.3,15.9,1,17c2,1,5.2-1.7,8-4
	c6-5,9.1-10.6,10.2-12.8c6.8-13,3.7-17.7,8.8-21.2c2.8-2,3.9-0.6,18-1c12.6-0.3,16-1.5,18,1c2.5,3.1,0.1,8.8-2,14
	c-1.6,3.8-3.6,7.4-11,17c-8.9,11.6-11.3,13.3-11,17c0.2,2.2,1.2,3.7,10,12c11.8,11.2,15.8,13.9,16,19c0,0.2,0.2,4.9-3,8
	c-1.8,1.8-4.3,2.5-17,2c-9.4-0.4-14.2-0.6-17-2c-3.6-1.8-6.1-4.5-11-10C116.3,118.7,114.2,114.6,111,115z"/>
</svg>
